<svg width="512" height="512" viewBox="0 0 512 512" fill="none" xmlns="http://www.w3.org/2000/svg">
<g clip-path="url(#clip0_263_2)">
<rect width="512" height="512" rx="256" fill="#4581F6"/>
<path d="M256.5 517C228.5 517 204.333 512 184 502C164 492 148.5 476.833 137.5 456.5C126.833 435.833 121.5 409.333 121.5 377V174C121.5 170.333 122.5 167.5 124.5 165.5C126.5 163.167 129.333 162 133 162H158.5C162.167 162 165 163.167 167 165.5C169.333 167.5 170.5 170.333 170.5 174V378C170.5 410.667 178.167 434.833 193.5 450.5C208.833 466.167 229.833 474 256.5 474C282.833 474 303.667 466.167 319 450.5C334.667 434.833 342.5 410.667 342.5 378V174C342.5 170.333 343.5 167.5 345.5 165.5C347.833 163.167 350.667 162 354 162H380C383.333 162 386 163.167 388 165.5C390.333 167.5 391.5 170.333 391.5 174V377C391.5 409.333 386 435.833 375 456.5C364.333 476.833 349 492 329 502C309 512 284.833 517 256.5 517Z" fill="white"/>
</g>
<defs>
<clipPath id="clip0_263_2">
<rect width="512" height="512" rx="256" fill="white"/>
</clipPath>
</defs>
</svg>
